<?xml version="1.0" encoding="UTF-8" standalone="no"?>
<svg
   xmlns:dc="http://purl.org/dc/elements/1.1/"
   xmlns:cc="http://creativecommons.org/ns#"
   xmlns:rdf="http://www.w3.org/1999/02/22-rdf-syntax-ns#"
   xmlns:svg="http://www.w3.org/2000/svg"
   xmlns="http://www.w3.org/2000/svg"
   xmlns:sodipodi="http://sodipodi.sourceforge.net/DTD/sodipodi-0.dtd"
   xmlns:inkscape="http://www.inkscape.org/namespaces/inkscape"
   version="1.1"
   width="76"
   height="76"
   viewBox="0 0 76.00 76.00"
   enable-background="new 0 0 76.00 76.00"
   xml:space="preserve"
   id="svg4"
   sodipodi:docname="debug.svg"
   inkscape:version="1.0.1 (3bc2e813f5, 2020-09-07)"><metadata
   id="metadata10"><rdf:RDF><cc:Work
       rdf:about=""><dc:format>image/svg+xml</dc:format><dc:type
         rdf:resource="http://purl.org/dc/dcmitype/StillImage" /><dc:title></dc:title></cc:Work></rdf:RDF></metadata><defs
   id="defs8" /><sodipodi:namedview
   pagecolor="#ffffff"
   bordercolor="#666666"
   borderopacity="1"
   objecttolerance="10"
   gridtolerance="10"
   guidetolerance="10"
   inkscape:pageopacity="0"
   inkscape:pageshadow="2"
   inkscape:window-width="1852"
   inkscape:window-height="1057"
   id="namedview6"
   showgrid="false"
   inkscape:zoom="11.710526"
   inkscape:cx="21.561798"
   inkscape:cy="38"
   inkscape:window-x="60"
   inkscape:window-y="-8"
   inkscape:window-maximized="1"
   inkscape:current-layer="svg4" />
	<path
   fill="#000000"
   fill-opacity="1"
   stroke-linejoin="round"
   d="m 55.322784,2.0921349 c 2.779155,0 5.032147,2.0814022 5.032147,4.6488925 0,2.5674903 -2.252992,4.6488916 -5.032147,4.6488916 l -1.279978,-0.151739 -4.644671,5.492016 c 3.205075,2.13068 5.986847,5.148554 8.143423,8.797006 -5.499533,1.639571 -12.156259,2.598731 -19.328075,2.598731 -7.172017,0 -13.828541,-0.95916 -19.328075,-2.598731 2.084516,-3.526464 4.753165,-6.463821 7.823379,-8.580555 L 21.95381,11.324091 c -0.276164,0.04333 -0.560179,0.06583 -0.849628,0.06583 -2.779154,0 -5.032147,-2.0812159 -5.032147,-4.6488921 0,-2.5674903 2.252993,-4.6488925 5.032147,-4.6488925 2.779155,0 5.032147,2.0814022 5.032147,4.6488925 0,0.9331257 -0.297701,1.8020966 -0.809974,2.5302991 l 4.839517,5.722416 c 2.517282,-1.129681 5.225986,-1.744266 8.047611,-1.744266 2.684952,0 5.267652,0.556566 7.680265,1.5836 l 4.990079,-5.9003747 c -0.378619,-0.6530764 -0.59319,-1.3991308 -0.59319,-2.1916739 0,-2.5674903 2.252992,-4.6488925 5.032147,-4.6488925 z M 71.425656,41.142832 c 1.667451,0 3.019288,1.248878 3.019288,2.789334 0,1.540458 -1.351837,2.789336 -3.019288,2.789336 h -9.156295 c -0.143114,2.017063 -0.440011,3.977779 -0.875392,5.86337 l 10.647419,4.586783 c 1.511256,0.651031 2.165032,2.310685 1.46033,3.70684 -0.704702,1.396155 -2.500977,2.00014 -4.012231,1.349109 L 59.683643,58.003435 C 55.959049,67.154873 48.71497,73.62018 40.226341,74.509792 V 31.819757 c 7.127535,-0.179819 13.66993,-1.308013 18.968981,-3.098581 l 0.392106,0.906163 10.288327,-3.648451 c 1.556745,-0.552102 3.303101,0.166244 3.900718,1.604425 0.597618,1.438182 -0.17995,3.051533 -1.736695,3.603636 l -10.714649,3.799818 c 0.473022,1.974851 0.793671,4.034311 0.944232,6.156065 z m -66.4243452,0 h 9.1562942 c 0.150561,-2.121754 0.471009,-4.181029 0.944231,-6.156065 L 4.3871876,31.186949 C 2.8304426,30.634846 2.0528751,29.021495 2.6502916,27.583313 3.2479094,26.145132 4.9944671,25.426786 6.5512122,25.978888 l 10.2881248,3.648451 0.392306,-0.906163 c 5.299052,1.790568 11.841247,2.918762 18.968981,3.098581 V 74.509792 C 27.711795,73.62018 20.467716,67.154873 16.743324,58.003435 L 6.9372785,62.22779 C 5.4260241,62.878822 3.6297487,62.27465 2.9250469,60.878495 2.220345,59.48234 2.8741215,57.822872 4.385376,57.171841 l 10.647622,-4.586969 c -0.435584,-1.885404 -0.732279,-3.846307 -0.875393,-5.86337 H 5.0013108 c -1.6674522,0 -3.0192883,-1.248693 -3.0192883,-2.789336 0,-1.540456 1.3518361,-2.789334 3.0192883,-2.789334 z"
   id="path2"
   style="stroke-width:1.9347;fill:#c5c5c5;fill-opacity:1" />
</svg>
