<svg width="24" height="24" viewBox="0 0 24 24" fill="none" xmlns="http://www.w3.org/2000/svg">
<path fill-rule="evenodd" clip-rule="evenodd" d="M20.5249 14.1968C21.7157 13.71 22.5583 12.5528 22.5583 11.1898V10.6543C22.5583 9.29117 21.7157 8.13031 20.5249 7.64349C20.3676 7.57983 20.1954 7.69592 20.1954 7.86443V13.9758C20.1954 14.1481 20.3676 14.2604 20.5249 14.1968ZM18.3904 14.3428C18.278 12.9573 17.7276 11.699 16.8738 10.7029C16.7764 10.5869 16.8026 10.4296 16.9299 10.3472C18.0908 9.60573 18.8173 8.24639 18.6413 6.73352C18.4503 5.08584 17.1359 3.72276 15.4957 3.4756C14.728 3.36326 13.9941 3.47935 13.3575 3.77144C12.9193 3.97365 12.455 4.07102 11.9906 4.07102C11.5225 4.07102 11.0582 3.96991 10.6238 3.77144C9.98721 3.47935 9.25324 3.35952 8.48557 3.4756C6.84537 3.71901 5.53097 5.08584 5.33999 6.73352C5.16399 8.25014 5.89047 9.60573 7.05134 10.3472C7.17866 10.4296 7.20487 10.5869 7.10751 10.7029C6.25745 11.699 5.70323 12.9573 5.59089 14.3428C5.57965 14.4851 5.68451 14.605 5.82681 14.605H11.9906H18.1545C18.293 14.605 18.4016 14.4814 18.3904 14.3428ZM5.66578 16.013C6.20503 19.02 8.82634 21.308 11.9906 21.308C15.1549 21.308 17.7763 19.0237 18.3155 16.013C18.3417 15.8632 18.2294 15.7284 18.0796 15.7284H11.9906H5.9017C5.75191 15.7284 5.63957 15.8669 5.66578 16.013ZM3.46013 14.1968C3.61741 14.2604 3.78967 14.1444 3.78967 13.9758V7.86069C3.78967 7.68843 3.61741 7.57609 3.46013 7.63975C2.26931 8.13031 1.42674 9.28743 1.42674 10.6505V11.1898C1.42674 12.5491 2.26931 13.71 3.46013 14.1968ZM20.113 6.22424C20.4275 6.16432 20.7571 6.19428 21.0641 6.31786C22.8391 7.04808 23.9888 8.74819 24 10.6505V11.186C24 13.0921 22.8541 14.7922 21.0791 15.5187C20.8731 15.6011 20.656 15.6422 20.4425 15.6422C20.244 15.6422 20.0493 15.6048 19.8658 15.5374C19.7909 15.5074 19.7123 15.5748 19.7273 15.6535C19.7647 15.8519 19.7685 16.0579 19.731 16.2639C19.0607 20.0161 15.8103 22.7385 11.9981 22.7385C8.18599 22.7385 4.93556 20.0161 4.26525 16.2639C4.2278 16.0579 4.23155 15.8519 4.269 15.6535C4.28398 15.5748 4.20534 15.5074 4.13044 15.5374C3.9432 15.6048 3.74848 15.6422 3.55375 15.6422C3.3403 15.6422 3.12685 15.6011 2.92089 15.5187C1.14589 14.7884 0 13.0883 0 11.186V10.6505C0 8.74444 1.14589 7.04433 2.92089 6.31786C3.22796 6.19054 3.5575 6.16432 3.87206 6.22424C3.93197 6.23547 3.98814 6.20177 3.99938 6.14185C4.42628 4.03357 6.13013 2.38214 8.28335 2.06009C9.29443 1.90656 10.313 2.04886 11.2267 2.46827C11.4701 2.58061 11.7323 2.63678 11.9944 2.63678C12.2565 2.63678 12.5186 2.58061 12.7621 2.46827C13.6758 2.0526 14.6943 1.9103 15.7054 2.06009C17.8586 2.38214 19.5625 4.03357 19.9894 6.14185C20.0006 6.20177 20.0531 6.23547 20.113 6.22424ZM8.80762 6.41147H15.1737C15.5182 6.41147 15.799 6.69232 15.799 7.03684C15.799 7.38135 15.5182 7.66221 15.1737 7.66221H8.80762C8.4631 7.66221 8.18225 7.38135 8.18225 7.03684C8.18225 6.69232 8.4631 6.41147 8.80762 6.41147ZM12.4625 10.5045C12.4625 10.0925 12.7958 9.75926 13.2077 9.75926C13.6196 9.75926 13.9529 10.0925 13.9529 10.5045C13.9529 10.9164 13.6196 11.2497 13.2077 11.2497C12.7958 11.2497 12.4625 10.9164 12.4625 10.5045ZM10.7736 9.75926C10.3617 9.75926 10.0284 10.0925 10.0284 10.5045C10.0284 10.9164 10.3617 11.2497 10.7736 11.2497C11.1855 11.2497 11.5188 10.9164 11.5188 10.5045C11.5188 10.0925 11.1855 9.75926 10.7736 9.75926Z" fill="white"/>
</svg>
